<?xml version="1.0" encoding="UTF-8"?>
<svg xmlns="http://www.w3.org/2000/svg" xmlns:xlink="http://www.w3.org/1999/xlink" viewBox="0 0 25 25" width="25px" height="25px">
<g id="surface31374738">
<path style=" stroke:none;fill-rule:nonzero;fill:rgb(100%,100%,100%);fill-opacity:1;" d="M 8.332031 2.5 C 5.117188 2.5 2.5 5.117188 2.5 8.335938 L 2.5 16.667969 C 2.5 19.882812 5.117188 22.5 8.335938 22.5 L 16.667969 22.5 C 19.882812 22.5 22.5 19.882812 22.5 16.664062 L 22.5 8.332031 C 22.5 5.117188 19.882812 2.5 16.664062 2.5 Z M 18.332031 5.832031 C 18.792969 5.832031 19.167969 6.207031 19.167969 6.667969 C 19.167969 7.125 18.792969 7.5 18.332031 7.5 C 17.875 7.5 17.5 7.125 17.5 6.667969 C 17.5 6.207031 17.875 5.832031 18.332031 5.832031 Z M 12.5 7.5 C 15.257812 7.5 17.5 9.742188 17.5 12.5 C 17.5 15.257812 15.257812 17.5 12.5 17.5 C 9.742188 17.5 7.5 15.257812 7.5 12.5 C 7.5 9.742188 9.742188 7.5 12.5 7.5 Z M 12.5 9.167969 C 10.660156 9.167969 9.167969 10.660156 9.167969 12.5 C 9.167969 14.339844 10.660156 15.832031 12.5 15.832031 C 14.339844 15.832031 15.832031 14.339844 15.832031 12.5 C 15.832031 10.660156 14.339844 9.167969 12.5 9.167969 Z M 12.5 9.167969 "/>
</g>
</svg>
