<?xml version="1.0" encoding="UTF-8"?>
<svg xmlns="http://www.w3.org/2000/svg" xmlns:xlink="http://www.w3.org/1999/xlink" viewBox="0 0 25 25" width="25px" height="25px">
<g id="surface18177313">
<path style=" stroke:none;fill-rule:nonzero;fill:rgb(100%,100%,100%);fill-opacity:1;" d="M 23.835938 18.335938 C 22.898438 16.648438 20.488281 14.625 19.492188 13.746094 C 19.21875 13.503906 19.191406 13.085938 19.4375 12.820312 C 21.339844 10.777344 22.859375 8.433594 23.378906 7.015625 C 23.613281 6.390625 23.132812 5.730469 22.460938 5.730469 L 20.507812 5.730469 C 19.863281 5.730469 19.484375 5.960938 19.304688 6.328125 C 17.726562 9.5625 16.371094 10.964844 15.425781 11.78125 C 14.894531 12.238281 14.066406 11.859375 14.066406 11.164062 C 14.066406 9.820312 14.066406 8.082031 14.066406 6.851562 C 14.066406 6.253906 13.578125 5.769531 12.976562 5.769531 L 9.402344 5.730469 C 8.953125 5.730469 8.699219 6.238281 8.96875 6.59375 L 9.558594 7.441406 C 9.777344 7.734375 9.898438 8.089844 9.898438 8.457031 L 9.894531 12.269531 C 9.894531 12.933594 9.09375 13.253906 8.613281 12.792969 C 7 11.21875 5.601562 8.007812 5.097656 6.472656 C 4.949219 6.03125 4.535156 5.730469 4.0625 5.730469 L 2.136719 5.722656 C 1.414062 5.722656 0.886719 6.410156 1.082031 7.097656 C 2.84375 13.273438 6.453125 19.148438 12.886719 19.785156 C 13.519531 19.847656 14.066406 19.339844 14.066406 18.707031 L 14.066406 16.703125 C 14.066406 16.128906 14.515625 15.636719 15.097656 15.621094 C 15.117188 15.621094 15.136719 15.621094 15.15625 15.621094 C 16.859375 15.621094 18.765625 18.097656 19.429688 19.253906 C 19.621094 19.589844 19.980469 19.792969 20.367188 19.792969 L 22.957031 19.792969 C 23.714844 19.792969 24.199219 18.988281 23.835938 18.335938 Z M 23.835938 18.335938 "/>
</g>
</svg>
