<?xml version="1.0" encoding="UTF-8"?>
<svg xmlns="http://www.w3.org/2000/svg" xmlns:xlink="http://www.w3.org/1999/xlink" viewBox="0 0 25 25" width="25px" height="25px">
<g id="surface18228056">
<path style=" stroke:none;fill-rule:nonzero;fill:rgb(100%,100%,100%);fill-opacity:1;" d="M 12.5 2.5 C 6.976562 2.5 2.5 6.976562 2.5 12.5 C 2.5 14.375 3.027344 16.125 3.925781 17.625 L 2.589844 22.5 L 7.566406 21.191406 C 9.023438 22.019531 10.707031 22.5 12.5 22.5 C 18.023438 22.5 22.5 18.023438 22.5 12.5 C 22.5 6.976562 18.023438 2.5 12.5 2.5 Z M 9.078125 7.835938 C 9.238281 7.835938 9.40625 7.835938 9.550781 7.839844 C 9.730469 7.847656 9.921875 7.859375 10.109375 8.269531 C 10.328125 8.757812 10.8125 9.984375 10.871094 10.105469 C 10.933594 10.230469 10.976562 10.378906 10.890625 10.539062 C 10.808594 10.707031 10.769531 10.808594 10.648438 10.957031 C 10.523438 11.097656 10.386719 11.277344 10.273438 11.386719 C 10.152344 11.507812 10.023438 11.644531 10.164062 11.894531 C 10.308594 12.140625 10.808594 12.953125 11.542969 13.605469 C 12.488281 14.453125 13.285156 14.710938 13.535156 14.835938 C 13.785156 14.960938 13.925781 14.941406 14.070312 14.773438 C 14.21875 14.609375 14.691406 14.054688 14.855469 13.804688 C 15.019531 13.558594 15.183594 13.601562 15.410156 13.679688 C 15.636719 13.761719 16.855469 14.363281 17.105469 14.488281 C 17.351562 14.613281 17.515625 14.671875 17.578125 14.773438 C 17.640625 14.878906 17.640625 15.375 17.4375 15.953125 C 17.230469 16.53125 16.21875 17.089844 15.765625 17.128906 C 15.308594 17.167969 14.882812 17.332031 12.792969 16.511719 C 10.273438 15.519531 8.683594 12.9375 8.558594 12.769531 C 8.433594 12.609375 7.550781 11.429688 7.550781 10.210938 C 7.550781 8.992188 8.191406 8.394531 8.414062 8.144531 C 8.644531 7.894531 8.910156 7.835938 9.078125 7.835938 Z M 9.078125 7.835938 "/>
</g>
</svg>
